<svg xmlns="http://www.w3.org/2000/svg" viewBox="0 0 127.14 96.36" fill="#b81a56">
  <path d="M107.7 8.07A105.15 105.15 0 0 0 81.47 0a72.06 72.06 0 0 0-3.36 6.83A97.68 97.68 0 0 0 49 6.83 72.37 72.37 0 0 0 45.64 0 105.89 105.89 0 0 0 19.39 8.09C2.79 32.65-1.71 56.6.54 80.21a105.73 105.73 0 0 0 32.17 16.15 77.7 77.7 0 0 0 6.89-11.31 68.42 68.42 0 0 1-10.84-5.18c.91-.66 1.8-1.34 2.66-2.06 20.87 9.54 43.54 9.54 64.16 0 .87.72 1.76 1.4 2.66 2.06A68.68 68.68 0 0 1 87.4 85a77 77 0 0 0 6.89 11.31 105.25 105.25 0 0 0 32.17-16.16c2.64-27.36-4.46-51.09-18.76-72.08ZM42.45 65.69C36.18 65.69 31 59.93 31 52.84S36.05 40 42.42 40 54 45.75 53.87 52.84 48.81 65.69 42.45 65.69Zm42.24 0c-6.27 0-11.42-5.76-11.42-12.85S78.32 40 84.69 40 96.24 45.75 96.11 52.84 91.06 65.69 84.69 65.69Z"></path>
</svg>