<?xml version="1.0" encoding="UTF-8"?>
<svg width="75px" height="75px" viewBox="0 0 75 75" version="1.1" xmlns="http://www.w3.org/2000/svg" xmlns:xlink="http://www.w3.org/1999/xlink">
    <title>Group 13</title>
    <g id="Page-1" stroke="none" stroke-width="1" fill="none" fill-rule="evenodd">
        <g id="Hiero-Homepage---R2" transform="translate(-983.000000, -6477.000000)">
            <g id="Group-13" transform="translate(983.000000, 6476.997600)">
                <rect id="Rectangle-Copy-13" stroke="#1E1E1E" stroke-width="2" fill="#FFFFFF" x="1" y="1" width="73" height="73"></rect>
                <g id="Fill-415" transform="translate(9.500000, 9.502000)" fill="#B81A56">
                    <path d="M42.001,53.289 C35.771,53.289 30.709,48.223 30.709,41.997 C30.709,35.771 35.771,30.705 42.001,30.705 C48.227,30.705 53.293,35.771 53.293,41.997 C53.293,48.223 48.227,53.289 42.001,53.289 M14.003,2.707 C20.229,2.707 25.295,7.773 25.295,13.999 C25.295,20.225 20.229,25.291 14.003,25.291 C7.773,25.291 2.707,20.225 2.707,13.999 C2.707,7.773 7.773,2.707 14.003,2.707 M42.001,0 C34.268,0 28.002,6.267 28.002,13.999 C28.002,6.267 21.731,0 13.999,0 C6.271,0 0,6.267 0,13.999 L0,41.997 C0,49.73 6.271,55.996 13.999,55.996 C21.731,55.996 28.002,49.73 28.002,41.997 C28.002,49.73 34.268,55.996 42.001,55.996 C49.729,55.996 56,49.73 56,41.997 L56,13.999 C56,6.267 49.729,0 42.001,0" id="Fill-211"></path>
                </g>
            </g>
        </g>
    </g>
</svg>