<?xml version="1.0" encoding="UTF-8"?>
<svg width="56px" height="56px" viewBox="0 0 56 56" version="1.1" xmlns="http://www.w3.org/2000/svg" xmlns:xlink="http://www.w3.org/1999/xlink">
    <title>Fill 461</title>
    <g id="Page-1" stroke="none" stroke-width="1" fill="none" fill-rule="evenodd">
        <g id="Hiero-Homepage---R2-Bio" transform="translate(-140.000000, -1590.000000)" fill="#B81A56">
            <g id="Fill-461" transform="translate(140.002300, 1589.997500)">
                <path d="M55.3982228,19.0333006 C54.4782228,22.1030265 52.2172228,24.572806 50.3062228,27.1025801 C43.5242228,36.1117757 28.5402228,55.3000625 28.0002228,56 C27.4602228,55.3000625 12.4752228,36.1117757 5.69322284,27.1025801 C3.78322284,24.572806 1.52222284,22.1030265 0.602222841,19.0333006 C-0.928777159,13.8637622 0.512222841,8.14427283 4.32322284,4.33461298 C10.1052228,-1.44487099 19.4872228,-1.44487099 25.2692228,4.33461298 L28.0002228,7.07436836 L30.7312228,4.33461298 C36.5122228,-1.44487099 45.8952228,-1.44487099 51.6772228,4.33461298 C55.4882228,8.14427283 56.9282228,13.8637622 55.3982228,19.0333006" id="Fill-26"></path>
            </g>
        </g>
    </g>
</svg>