<?xml version="1.0" encoding="UTF-8"?>
<svg width="56px" height="57px" viewBox="0 0 56 57" version="1.1" xmlns="http://www.w3.org/2000/svg" xmlns:xlink="http://www.w3.org/1999/xlink">
    <title>Group 30</title>
    <g id="Page-1" stroke="none" stroke-width="1" fill="none" fill-rule="evenodd">
        <g id="Hiero-Homepage---R2-Bio" transform="translate(-705.000000, -1094.000000)" fill="#B81A56">
            <g id="Group-30" transform="translate(705.000300, 1094.499400)">
                <path d="M33.9833,28.0003 C33.9833,31.3053 31.3043,33.9843 27.9993,33.9843 C24.6953,33.9843 22.0163,31.3053 22.0163,28.0003 C22.0163,24.6953 24.6953,22.0163 27.9993,22.0163 C31.3043,22.0163 33.9833,24.6953 33.9833,28.0003" id="Fill-139"></path>
                <path d="M11.967,5.984 C11.967,9.289 9.288,11.968 5.983,11.968 C2.679,11.968 0,9.289 0,5.984 C0,2.679 2.679,0 5.983,0 C9.288,0 11.967,2.679 11.967,5.984" id="Fill-140"></path>
                <path d="M33.9833,5.984 C33.9833,9.289 31.3043,11.968 27.9993,11.968 C24.6953,11.968 22.0163,9.289 22.0163,5.984 C22.0163,2.679 24.6953,0 27.9993,0 C31.3043,0 33.9833,2.679 33.9833,5.984" id="Fill-141"></path>
                <path d="M55.9997,5.984 C55.9997,9.289 53.3207,11.968 50.0157,11.968 C46.7117,11.968 44.0327,9.289 44.0327,5.984 C44.0327,2.679 46.7117,0 50.0157,0 C53.3207,0 55.9997,2.679 55.9997,5.984" id="Fill-142"></path>
                <path d="M11.967,28.0003 C11.967,31.3053 9.288,33.9843 5.983,33.9843 C2.679,33.9843 0,31.3053 0,28.0003 C0,24.6953 2.679,22.0163 5.983,22.0163 C9.288,22.0163 11.967,24.6953 11.967,28.0003" id="Fill-143"></path>
                <path d="M55.9997,28.0003 C55.9997,31.3053 53.3207,33.9843 50.0157,33.9843 C46.7117,33.9843 44.0327,31.3053 44.0327,28.0003 C44.0327,24.6953 46.7117,22.0163 50.0157,22.0163 C53.3207,22.0163 55.9997,24.6953 55.9997,28.0003" id="Fill-144"></path>
                <path d="M11.967,50.0166 C11.967,53.3216 9.288,56.0006 5.983,56.0006 C2.679,56.0006 0,53.3216 0,50.0166 C0,46.7116 2.679,44.0326 5.983,44.0326 C9.288,44.0326 11.967,46.7116 11.967,50.0166" id="Fill-145"></path>
                <path d="M33.9833,50.0166 C33.9833,53.3216 31.3043,56.0006 27.9993,56.0006 C24.6953,56.0006 22.0163,53.3216 22.0163,50.0166 C22.0163,46.7116 24.6953,44.0326 27.9993,44.0326 C31.3043,44.0326 33.9833,46.7116 33.9833,50.0166" id="Fill-146"></path>
                <path d="M55.9997,50.0166 C55.9997,53.3216 53.3207,56.0006 50.0157,56.0006 C46.7117,56.0006 44.0327,53.3216 44.0327,50.0166 C44.0327,46.7116 46.7117,44.0326 50.0157,44.0326 C53.3207,44.0326 55.9997,46.7116 55.9997,50.0166" id="Fill-147"></path>
            </g>
        </g>
    </g>
</svg>