<?xml version="1.0" encoding="UTF-8"?>
<svg width="56px" height="57px" viewBox="0 0 56 57" version="1.1" xmlns="http://www.w3.org/2000/svg" xmlns:xlink="http://www.w3.org/1999/xlink">
    <title>Group 20</title>
    <g id="Page-1" stroke="none" stroke-width="1" fill="none" fill-rule="evenodd">
        <g id="Hiero-Homepage---R2-Bio" transform="translate(-860.000000, -1590.000000)" fill="#B81A56">
            <g id="Group-20" transform="translate(859.997714, 1590.005500)">
                <path d="M13.999,13.9992 C6.267,13.9992 0,20.2672 0,27.9982 C0,35.7302 6.267,41.9982 13.999,41.9982 L13.999,13.9992 Z" id="Fill-220"></path>
                <path d="M41.9975,14.0022 C49.7295,14.0022 55.9965,20.2702 55.9965,28.0012 C55.9965,35.7332 49.7295,42.0002 41.9975,42.0002 L41.9975,14.0022 Z" id="Fill-221"></path>
                <path d="M41.9984,13.9992 C41.9984,6.2672 35.7304,0.0002 27.9994,0.0002 C20.2674,0.0002 13.9994,6.2672 13.9994,13.9992 L41.9984,13.9992 Z" id="Fill-222"></path>
                <path d="M13.9999,0 L13.9999,13.999 L0.0079,13.999 C0.0079,6.269 6.2689,0 13.9999,0" id="Fill-223"></path>
                <path d="M42.0013,0 L42.0013,13.999 L55.9933,13.999 C55.9933,6.269 49.7323,0 42.0013,0" id="Fill-224"></path>
                <path d="M13.9999,55.997 L13.9999,41.998 L0.0079,41.998 C0.0079,49.728 6.2689,55.997 13.9999,55.997" id="Fill-225"></path>
                <path d="M42.0013,55.997 L42.0013,41.998 L55.9933,41.998 C55.9933,49.728 49.7323,55.997 42.0013,55.997" id="Fill-226"></path>
                <path d="M13.999,41.9978 C13.999,49.7298 20.267,55.9968 27.998,55.9968 C35.73,55.9968 41.998,49.7298 41.998,41.9978 L13.999,41.9978 Z" id="Fill-227"></path>
                <path d="M41.9975,28.0103 C41.9975,35.7423 35.7295,42.0093 27.9985,42.0093 C20.2665,42.0093 13.9985,35.7423 13.9985,28.0103 C13.9985,20.2783 20.2665,14.0113 27.9985,14.0113 C35.7295,14.0113 41.9975,20.2783 41.9975,28.0103" id="Fill-228"></path>
            </g>
        </g>
    </g>
</svg>