<?xml version="1.0" encoding="UTF-8"?>
<svg width="75px" height="75px" viewBox="0 0 75 75" version="1.1" xmlns="http://www.w3.org/2000/svg" xmlns:xlink="http://www.w3.org/1999/xlink">
    <title>Group 8</title>
    <g id="Page-1" stroke="none" stroke-width="1" fill="none" fill-rule="evenodd">
        <g id="Hiero-Homepage---R2" transform="translate(-983.000000, -5917.000000)">
            <g id="Group-8" transform="translate(983.000000, 5916.997600)">
                <rect id="Rectangle" stroke="#1E1E1E" stroke-width="2" fill="#FFFFFF" x="1" y="1" width="73" height="73"></rect>
                <g id="Group-45" transform="translate(9.000000, 9.590000)" fill="#B81A56">
                    <polygon id="Fill-79" points="8.431 0.0001 5.724 0.0001 5.724 5.7261 0 5.7261 0 8.4341 5.724 8.4341 5.724 14.1601 8.431 14.1601 8.431 8.4341 14.155 8.4341 14.155 5.7261 8.431 5.7261"></polygon>
                    <polygon id="Fill-80" points="29.3534 0.0001 26.6464 0.0001 26.6464 5.7261 20.9224 5.7261 20.9224 8.4341 26.6464 8.4341 26.6464 14.1601 29.3534 14.1601 29.3534 8.4341 35.0774 8.4341 35.0774 5.7261 29.3534 5.7261"></polygon>
                    <polygon id="Fill-81" points="50.2757 5.726 50.2757 0 47.5687 0 47.5687 5.726 41.8447 5.726 41.8447 8.434 47.5687 8.434 47.5687 14.16 50.2757 14.16 50.2757 8.434 55.9997 8.434 55.9997 5.726"></polygon>
                    <polygon id="Fill-82" points="8.431 20.9201 5.724 20.9201 5.724 26.6461 0 26.6461 0 29.3541 5.724 29.3541 5.724 35.0801 8.431 35.0801 8.431 29.3541 14.155 29.3541 14.155 26.6461 8.431 26.6461"></polygon>
                    <polygon id="Fill-83" points="29.3534 20.9201 26.6464 20.9201 26.6464 26.6461 20.9224 26.6461 20.9224 29.3541 26.6464 29.3541 26.6464 35.0801 29.3534 35.0801 29.3534 29.3541 35.0774 29.3541 35.0774 26.6461 29.3534 26.6461"></polygon>
                    <polygon id="Fill-84" points="50.2757 20.9201 47.5687 20.9201 47.5687 26.6461 41.8447 26.6461 41.8447 29.3541 47.5687 29.3541 47.5687 35.0801 50.2757 35.0801 50.2757 29.3541 55.9997 29.3541 55.9997 26.6461 50.2757 26.6461"></polygon>
                    <polygon id="Fill-85" points="8.431 41.84 5.724 41.84 5.724 47.566 0 47.566 0 50.274 5.724 50.274 5.724 56 8.431 56 8.431 50.274 14.155 50.274 14.155 47.566 8.431 47.566"></polygon>
                    <polygon id="Fill-86" points="29.3534 41.84 26.6464 41.84 26.6464 47.566 20.9224 47.566 20.9224 50.274 26.6464 50.274 26.6464 56 29.3534 56 29.3534 50.274 35.0774 50.274 35.0774 47.566 29.3534 47.566"></polygon>
                    <polygon id="Fill-87" points="50.2757 41.84 47.5687 41.84 47.5687 47.566 41.8447 47.566 41.8447 50.274 47.5687 50.274 47.5687 56 50.2757 56 50.2757 50.274 55.9997 50.274 55.9997 47.566 50.2757 47.566"></polygon>
                </g>
            </g>
        </g>
    </g>
</svg>