<?xml version="1.0" encoding="UTF-8"?>
<svg width="56px" height="57px" viewBox="0 0 56 57" version="1.1" xmlns="http://www.w3.org/2000/svg" xmlns:xlink="http://www.w3.org/1999/xlink">
    <title>Fill 443</title>
    <g id="Page-1" stroke="none" stroke-width="1" fill="none" fill-rule="evenodd">
        <g id="Hiero-Homepage---R2-Bio" transform="translate(-705.000000, -666.000000)" fill="#B81A56">
            <g id="Fill-443" transform="translate(704.999000, 666.499000)">
                <path d="M41.324,53.295 C34.724,53.295 29.354,47.925 29.354,41.324 C29.354,34.723 34.724,29.354 41.324,29.354 C47.925,29.354 53.295,34.723 53.295,41.324 C53.295,47.925 47.925,53.295 41.324,53.295 M14.677,53.295 C8.076,53.295 2.706,47.925 2.706,41.324 C2.706,34.723 8.076,29.354 14.677,29.354 C21.278,29.354 26.648,34.723 26.648,41.324 C26.648,47.925 21.278,53.295 14.677,53.295 M2.706,14.677 C2.706,8.076 8.076,2.706 14.677,2.706 C21.278,2.706 26.648,8.076 26.648,14.677 C26.648,21.277 21.278,26.647 14.677,26.647 C8.076,26.647 2.706,21.277 2.706,14.677 M35.18,28 C32.019,29.464 29.464,32.019 28.001,35.18 C26.537,32.019 23.982,29.464 20.821,28 C23.982,26.537 26.537,23.982 28.001,20.821 C29.464,23.982 32.019,26.537 35.18,28 M41.324,2.706 C47.925,2.706 53.295,8.076 53.295,14.677 C53.295,21.277 47.925,26.647 41.324,26.647 C34.724,26.647 29.354,21.277 29.354,14.677 C29.354,8.076 34.724,2.706 41.324,2.706 M47.468,28 C52.5,25.671 56.001,20.576 56.001,14.677 C56.001,6.584 49.417,0 41.324,0 C35.425,0 30.33,3.501 28.001,8.532 C25.671,3.501 20.577,0 14.677,0 C6.584,0 0,6.584 0,14.677 C0,20.576 3.501,25.671 8.533,28 C3.501,30.33 0,35.424 0,41.324 C0,49.417 6.584,56.001 14.677,56.001 C20.577,56.001 25.671,52.5 28.001,47.469 C30.33,52.5 35.425,56.001 41.324,56.001 C49.417,56.001 56.001,49.417 56.001,41.324 C56.001,35.424 52.5,30.33 47.468,28" id="Fill-78"></path>
            </g>
        </g>
    </g>
</svg>