<?xml version="1.0" encoding="utf-8"?>
<svg viewBox="0 0 100 100" width="100" height="100" xmlns="http://www.w3.org/2000/svg">
  <rect width="100" height="100" style="fill: rgb(216, 216, 216); stroke: rgb(0, 0, 0);" transform="matrix(0.9999999999999999, 0, 0, 0.9999999999999999, -3.552713678800501e-15, -3.552713678800501e-15)"/>
  <path d="M 66.776 191.316 L 66.776 171.273 L 69.429 171.273 L 69.429 179.504 L 79.847 179.504 L 79.847 171.273 L 82.499 171.273 L 82.499 191.316 L 79.847 191.316 L 79.847 181.869 L 69.429 181.869 L 69.429 191.316 Z M 87.362 191.316 L 87.362 171.273 L 90.014 171.273 L 90.014 191.316 Z M 94.745 191.316 L 94.745 171.273 L 109.237 171.273 L 109.237 173.638 L 97.397 173.638 L 97.397 179.777 L 108.485 179.777 L 108.485 182.129 L 97.397 182.129 L 97.397 188.951 L 109.702 188.951 L 109.702 191.316 Z M 113.404 191.316 L 113.404 171.273 L 122.29 171.273 Q 124.97 171.273 126.365 171.813 Q 127.759 172.353 128.593 173.72 Q 129.427 175.087 129.427 176.742 Q 129.427 178.875 128.046 180.337 Q 126.665 181.8 123.781 182.197 Q 124.833 182.703 125.38 183.195 Q 126.542 184.261 127.581 185.861 L 131.068 191.316 L 127.732 191.316 L 125.079 187.146 Q 123.917 185.341 123.165 184.384 Q 122.413 183.427 121.819 183.045 Q 121.224 182.662 120.609 182.511 Q 120.158 182.416 119.132 182.416 L 116.056 182.416 L 116.056 191.316 Z M 116.056 180.119 L 121.757 180.119 Q 123.576 180.119 124.601 179.743 Q 125.626 179.367 126.16 178.54 Q 126.693 177.712 126.693 176.742 Q 126.693 175.32 125.661 174.404 Q 124.628 173.488 122.4 173.488 L 116.056 173.488 Z M 132.773 181.554 Q 132.773 176.564 135.452 173.741 Q 138.132 170.918 142.37 170.918 Q 145.146 170.918 147.374 172.244 Q 149.603 173.57 150.772 175.942 Q 151.941 178.314 151.941 181.322 Q 151.941 184.371 150.71 186.777 Q 149.48 189.183 147.224 190.421 Q 144.968 191.658 142.357 191.658 Q 139.527 191.658 137.298 190.291 Q 135.07 188.923 133.921 186.558 Q 132.773 184.193 132.773 181.554 Z M 135.507 181.595 Q 135.507 185.218 137.455 187.303 Q 139.404 189.388 142.343 189.388 Q 145.337 189.388 147.272 187.283 Q 149.206 185.177 149.206 181.308 Q 149.206 178.861 148.379 177.036 Q 147.552 175.211 145.959 174.206 Q 144.367 173.201 142.384 173.201 Q 139.568 173.201 137.537 175.135 Q 135.507 177.07 135.507 181.595 Z" transform="matrix(0.9999999999999999, 0, 0, 0.9999999999999999, -58.92734146118164, -137.48089599609375)" style="fill: rgb(51, 51, 51);"/>
  <path transform="matrix(0.9999999999999999, 0, 0, 0.9999999999999999, -58.92734146118164, -137.48089599609375)" style="fill: rgb(51, 51, 51);"/>
  <path d="M 65.929 205.316 L 65.929 193.147 L 74.138 193.147 L 74.138 194.583 L 67.539 194.583 L 67.539 198.352 L 73.25 198.352 L 73.25 199.788 L 67.539 199.788 L 67.539 205.316 Z M 76.226 205.316 L 76.226 193.147 L 80.817 193.147 Q 82.029 193.147 82.668 193.263 Q 83.564 193.413 84.17 193.832 Q 84.776 194.251 85.146 195.006 Q 85.515 195.762 85.515 196.667 Q 85.515 198.219 84.527 199.294 Q 83.539 200.369 80.958 200.369 L 77.837 200.369 L 77.837 205.316 Z M 77.837 198.933 L 80.983 198.933 Q 82.543 198.933 83.199 198.352 Q 83.855 197.771 83.855 196.716 Q 83.855 195.953 83.469 195.409 Q 83.083 194.865 82.452 194.691 Q 82.045 194.583 80.95 194.583 L 77.837 194.583 Z M 87.076 199.389 Q 87.076 196.359 88.702 194.645 Q 90.329 192.931 92.903 192.931 Q 94.588 192.931 95.941 193.736 Q 97.294 194.542 98.004 195.982 Q 98.713 197.422 98.713 199.248 Q 98.713 201.099 97.966 202.56 Q 97.219 204.021 95.849 204.772 Q 94.48 205.524 92.894 205.524 Q 91.176 205.524 89.823 204.693 Q 88.47 203.863 87.773 202.427 Q 87.076 200.991 87.076 199.389 Z M 88.736 199.414 Q 88.736 201.614 89.919 202.88 Q 91.101 204.146 92.886 204.146 Q 94.704 204.146 95.879 202.867 Q 97.053 201.589 97.053 199.24 Q 97.053 197.754 96.551 196.646 Q 96.049 195.538 95.082 194.928 Q 94.115 194.317 92.911 194.317 Q 91.201 194.317 89.968 195.492 Q 88.736 196.667 88.736 199.414 Z M 105.436 205.316 L 105.436 193.147 L 107.047 193.147 L 107.047 203.88 L 113.04 203.88 L 113.04 205.316 Z M 114.469 199.389 Q 114.469 196.359 116.096 194.645 Q 117.723 192.931 120.296 192.931 Q 121.981 192.931 123.334 193.736 Q 124.687 194.542 125.397 195.982 Q 126.107 197.422 126.107 199.248 Q 126.107 201.099 125.359 202.56 Q 124.612 204.021 123.243 204.772 Q 121.873 205.524 120.288 205.524 Q 118.569 205.524 117.216 204.693 Q 115.863 203.863 115.166 202.427 Q 114.469 200.991 114.469 199.389 Z M 116.129 199.414 Q 116.129 201.614 117.312 202.88 Q 118.495 204.146 120.279 204.146 Q 122.097 204.146 123.272 202.867 Q 124.446 201.589 124.446 199.24 Q 124.446 197.754 123.944 196.646 Q 123.442 195.538 122.475 194.928 Q 121.508 194.317 120.304 194.317 Q 118.594 194.317 117.362 195.492 Q 116.129 196.667 116.129 199.414 Z M 133.875 200.543 L 133.875 199.115 L 139.029 199.107 L 139.029 203.623 Q 137.842 204.569 136.581 205.046 Q 135.319 205.524 133.991 205.524 Q 132.198 205.524 130.733 204.756 Q 129.268 203.988 128.521 202.535 Q 127.774 201.083 127.774 199.29 Q 127.774 197.513 128.517 195.973 Q 129.259 194.434 130.654 193.687 Q 132.049 192.94 133.866 192.94 Q 135.186 192.94 136.253 193.367 Q 137.32 193.795 137.925 194.558 Q 138.531 195.322 138.847 196.55 L 137.394 196.949 Q 137.12 196.019 136.714 195.488 Q 136.307 194.957 135.551 194.637 Q 134.796 194.317 133.875 194.317 Q 132.771 194.317 131.966 194.654 Q 131.16 194.99 130.666 195.538 Q 130.173 196.086 129.899 196.741 Q 129.434 197.87 129.434 199.19 Q 129.434 200.817 129.994 201.913 Q 130.554 203.008 131.625 203.54 Q 132.696 204.071 133.9 204.071 Q 134.946 204.071 135.942 203.668 Q 136.938 203.266 137.452 202.809 L 137.452 200.543 Z M 140.912 199.389 Q 140.912 196.359 142.539 194.645 Q 144.166 192.931 146.74 192.931 Q 148.425 192.931 149.778 193.736 Q 151.131 194.542 151.84 195.982 Q 152.55 197.422 152.55 199.248 Q 152.55 201.099 151.803 202.56 Q 151.056 204.021 149.686 204.772 Q 148.317 205.524 146.731 205.524 Q 145.013 205.524 143.66 204.693 Q 142.307 203.863 141.61 202.427 Q 140.912 200.991 140.912 199.389 Z M 142.573 199.414 Q 142.573 201.614 143.755 202.88 Q 144.938 204.146 146.723 204.146 Q 148.541 204.146 149.715 202.867 Q 150.89 201.589 150.89 199.24 Q 150.89 197.754 150.388 196.646 Q 149.886 195.538 148.919 194.928 Q 147.951 194.317 146.748 194.317 Q 145.038 194.317 143.805 195.492 Q 142.573 196.667 142.573 199.414 Z" transform="matrix(0.9999999999999999, 0, 0, 0.9999999999999999, -58.92734146118164, -137.48089599609375)" style="fill: rgb(51, 51, 51);"/>
</svg>