<?xml version="1.0" encoding="UTF-8"?>
<svg width="542px" height="529px" viewBox="0 0 542 529" version="1.1" xmlns="http://www.w3.org/2000/svg" xmlns:xlink="http://www.w3.org/1999/xlink">
    <title>Group 3</title>
    <g id="Page-1" stroke="none" stroke-width="1" fill="none" fill-rule="evenodd">
        <g id="Hiero-Homepage---R2-Bio" transform="translate(-569.000000, -1497.000000)" stroke="#E5E4D7" stroke-width="2">
            <g id="Group-3" transform="translate(570.718907, 1498.500000)">
                <path d="M33.8751603,525.959364 C14.7283306,525.058311 0,508.565695 0,489.396617 L0,35.5971736 C0,15.9386345 15.9364097,0 35.5971736,0 L502.965815,0 C522.624354,0 538.562988,15.9386345 538.562988,35.5971736 L538.562988,477.83866 C538.562988,497.499424 522.624354,513.435834 502.965815,513.435834 L270.536295,513.435834 C250.877755,513.435834 234.939121,497.499424 234.939121,477.83866 L234.939121,186.110923 C234.939121,166.94407 249.669676,150.451454 268.816506,149.548176 C289.258183,148.587052 306.133468,164.874984 306.133468,185.105303 L306.133468,417.668312 C306.133468,431.239735 317.13522,442.241486 330.706642,442.241486 L442.795467,442.241486 C456.36689,442.241486 467.368641,431.239735 467.368641,417.668312 L467.368641,95.7675211 C467.368641,82.1960987 456.36689,71.1943472 442.795467,71.1943472 L95.7675211,71.1943472 C82.1960987,71.1943472 71.1943472,82.1960987 71.1943472,95.7675211 L71.1943472,490.402237 C71.1943472,510.632556 54.3168373,526.922713 33.8751603,525.959364" id="Fill-1"></path>
            </g>
        </g>
    </g>
</svg>