<?xml version="1.0" encoding="UTF-8"?>
<svg width="15px" height="17px" viewBox="0 0 15 17" version="1.1" xmlns="http://www.w3.org/2000/svg" xmlns:xlink="http://www.w3.org/1999/xlink">
    <title>Fill 1</title>
    <g id="Page-1" stroke="none" stroke-width="1" fill="none" fill-rule="evenodd">
        <g id="Hiero-Homepage---R2" transform="translate(-958.000000, -4825.000000)" fill="#B81A56">
            <path d="M961.015202,4825.13717 L960.827331,4825.20379 C960.780284,4825.25968 960.747446,4825.35535 960.699137,4825.51007 L960.699137,4825.51007 C960.47527,4826.22682 960.461061,4826.94863 960.659036,4827.67233 L960.659036,4827.67233 C960.688401,4827.77873 960.673877,4827.84851 960.603148,4827.93124 L960.603148,4827.93124 C960.006065,4828.63473 959.728521,4829.456 959.715259,4830.37357 L959.715259,4830.37357 C959.704524,4831.10327 959.77462,4831.82223 960.005433,4832.51783 L960.005433,4832.51783 C960.466113,4833.90713 961.466409,4834.70377 962.841186,4835.08551 L962.841186,4835.08551 C963.272816,4835.20549 963.712656,4835.28411 964.194491,4835.33684 L964.194491,4835.33684 C964.060297,4835.48304 963.944732,4835.60744 963.860427,4835.75585 L963.860427,4835.75585 C963.729391,4835.98792 963.645086,4836.2361 963.615405,4836.49912 L963.615405,4836.49912 C963.603406,4836.60584 963.558886,4836.65384 963.465739,4836.69173 L963.465739,4836.69173 C962.33567,4837.15146 961.33632,4836.83508 960.682086,4835.80826 L960.682086,4835.80826 C960.372335,4835.32169 959.950493,4834.98889 959.37488,4834.87427 L959.37488,4834.87427 C959.196166,4834.83891 959.016504,4834.83417 958.842526,4834.89732 L958.842526,4834.89732 C958.69065,4834.95289 958.663495,4835.0492 958.760431,4835.17992 L958.760431,4835.17992 C958.829896,4835.27369 958.919569,4835.34884 959.018083,4835.40915 L959.018083,4835.40915 C959.58517,4835.75553 959.942599,4836.27494 960.192989,4836.8695 L960.192989,4836.8695 C960.576625,4837.78138 961.285485,4838.2067 962.237156,4838.28469 L962.237156,4838.28469 C962.668155,4838.32005 963.09568,4838.2749 963.526048,4838.1767 L963.526048,4838.1767 C963.526048,4838.77031 963.515312,4839.42897 963.515312,4840.01247 L963.515312,4840.01247 C963.515312,4840.01247 963.544361,4841.85803 965.971533,4841.85803 L965.971533,4841.85803 C968.39902,4841.85803 968.465643,4840.01247 968.465643,4840.01247 L968.465643,4840.01247 C968.465327,4840.01279 968.465327,4840.01279 968.465012,4840.01279 L968.465012,4840.01279 C968.465012,4840.01279 968.465327,4840.01279 968.465327,4840.01247 L968.465327,4840.01247 C968.465327,4840.01247 968.465643,4840.01247 968.465643,4840.01247 L968.465643,4840.01247 C968.465643,4839.03933 968.465643,4838.08292 968.465643,4837.1262 L968.465643,4837.1262 C968.465643,4836.74477 968.414176,4836.37219 968.279035,4836.0135 L968.279035,4836.0135 C968.178942,4835.74606 968.034644,4835.50672 967.804147,4835.29201 L967.804147,4835.29201 C968.136,4835.23328 968.446698,4835.1856 968.754555,4835.12245 L968.754555,4835.12245 C969.220602,4835.02678 969.67023,4834.87995 970.096809,4834.66556 L970.096809,4834.66556 C970.914601,4834.25508 971.525894,4833.64127 971.860589,4832.78779 L971.860589,4832.78779 C972.139712,4832.07704 972.293482,4831.35492 972.296324,4830.62364 L972.296324,4830.62364 L972.296324,4830.5807 C972.294114,4830.10171 972.226859,4829.61861 972.087298,4829.13235 L972.087298,4829.13235 C971.953419,4828.66504 971.71566,4828.24667 971.400225,4827.8763 L971.400225,4827.8763 C971.328866,4827.79263 971.316867,4827.72884 971.352231,4827.62181 L971.352231,4827.62181 C971.617146,4826.81506 971.500318,4826.0279 971.211091,4825.25178 L971.211091,4825.25178 C971.175411,4825.1558 971.109104,4825.1498 971.02985,4825.1479 L971.02985,4825.1479 C970.670527,4825.14127 970.331727,4825.23631 969.999557,4825.35851 L969.999557,4825.35851 C969.510145,4825.53817 969.053254,4825.78351 968.614677,4826.06295 L968.614677,4826.06295 C968.517426,4826.12452 968.433437,4826.14504 968.314083,4826.11378 L968.314083,4826.11378 C966.961094,4825.76014 965.592948,4825.75509 964.231118,4826.02285 L964.231118,4826.02285 C963.751809,4826.11726 963.363121,4826.0961 962.944436,4825.81603 L962.944436,4825.81603 C962.438604,4825.47786 961.865833,4825.25494 961.252962,4825.16401 L961.252962,4825.16401 C961.15287,4825.14917 961.075826,4825.13843 961.015202,4825.13717 Z" id="Fill-1"></path>
        </g>
    </g>
</svg>