<?xml version="1.0" encoding="UTF-8"?>
<svg width="56px" height="57px" viewBox="0 0 56 57" version="1.1" xmlns="http://www.w3.org/2000/svg" xmlns:xlink="http://www.w3.org/1999/xlink">
    <title>Fill 7</title>
    <g id="Page-1" stroke="none" stroke-width="1" fill="none" fill-rule="evenodd">
        <g id="Hiero-Homepage---R2" transform="translate(-705.000000, -1406.000000)" fill="#B81A56">
            <g id="Fill-7" transform="translate(705.000150, 1406.500000)">
                <path d="M28,45.486 C18.358,45.486 10.514,37.642 10.514,28 C10.514,18.358 18.358,10.513 28,10.513 C37.642,10.513 45.486,18.358 45.486,28 C45.486,37.642 37.642,45.486 28,45.486 M47.799,8.201 C42.511,2.912 35.479,0 28,0 C20.521,0 13.49,2.912 8.201,8.201 C2.912,13.489 0,20.521 0,28 C0,35.479 2.912,42.51 8.201,47.799 C13.49,53.087 20.521,56 28,56 C35.479,56 42.511,53.087 47.799,47.799 C53.088,42.51 56,35.479 56,28 C56,20.521 53.088,13.489 47.799,8.201" id="Fill-2"></path>
            </g>
        </g>
    </g>
</svg>