<svg width="108" height="24" viewBox="0 0 108 24" fill="none" xmlns="http://www.w3.org/2000/svg">
<g clip-path="url(#clip0_14005_1083)">
<path fill-rule="evenodd" clip-rule="evenodd" d="M69.2706 10.5537C69.9416 10.8371 70.6647 10.9772 71.4432 10.9772C72.2217 10.9772 72.9448 10.8339 73.6158 10.5537C74.2836 10.2736 74.8634 9.88599 75.352 9.3974C75.8406 8.9088 76.225 8.32573 76.5051 7.65472C76.782 6.98046 76.922 6.26059 76.922 5.4886C76.922 4.70684 76.7852 3.98371 76.5051 3.31596C76.225 2.64821 75.8406 2.0684 75.352 1.5798C74.8634 1.09121 74.2836 0.703583 73.6158 0.423453C72.9448 0.140065 72.225 0 71.4432 0C70.6615 0 69.9383 0.143322 69.2706 0.423453C68.6028 0.703583 68.023 1.09121 67.5344 1.5798C67.0458 2.07166 66.6614 2.64821 66.3813 3.31596C66.1044 3.98371 65.9644 4.70684 65.9644 5.4886C65.9644 6.26059 66.1012 6.98371 66.3813 7.65472C66.6614 8.32573 67.0458 8.9088 67.5344 9.3974C68.023 9.88599 68.6028 10.2736 69.2706 10.5537ZM72.6908 8.4886C72.3227 8.66775 71.9058 8.7557 71.4432 8.7557C70.9807 8.7557 70.5605 8.66775 70.1891 8.4886C69.8145 8.30945 69.4986 8.07166 69.2413 7.76873C68.9839 7.4658 68.7852 7.11726 68.6484 6.71987C68.5116 6.32248 68.4432 5.90228 68.4432 5.45277C68.4432 5.00326 68.5116 4.58306 68.6484 4.18567C68.7852 3.79153 68.9839 3.443 69.2413 3.14658C69.4986 2.85016 69.8145 2.61564 70.1891 2.443C70.5605 2.27036 70.9807 2.18567 71.4432 2.18567C71.9058 2.18567 72.3227 2.27036 72.6908 2.443C73.0588 2.61564 73.3715 2.85016 73.6289 3.14658C73.8862 3.443 74.0849 3.78827 74.2217 4.18567C74.3585 4.58306 74.4269 5.00326 74.4269 5.45277C74.4269 5.90228 74.3585 6.32248 74.2217 6.71987C74.0849 7.11726 73.8862 7.4658 73.6289 7.76873C73.3715 8.07166 73.0588 8.3127 72.6908 8.4886ZM27.4009 0.280133H31.3813C32.1924 0.280133 32.9416 0.384368 33.6321 0.592837C34.3227 0.801306 34.9155 1.12052 35.4171 1.54723C35.9155 1.97394 36.3064 2.52118 36.5865 3.18893C36.8667 3.85668 37.0035 4.6417 37.0035 5.55049C37.0035 6.41694 36.8601 7.16938 36.5768 7.81108C36.2934 8.45277 35.8992 8.99023 35.4009 9.4202C34.8992 9.85342 34.3064 10.1759 33.6158 10.3909C32.9253 10.6059 32.1761 10.7101 31.365 10.7101H27.4009V0.280133ZM31.238 8.61564C32.2901 8.61564 33.1012 8.34202 33.6712 7.79479C34.2413 7.24756 34.5246 6.49512 34.5246 5.5342C34.5246 5.05538 34.4595 4.6189 34.3259 4.22802C34.1956 3.83714 33.9937 3.50489 33.7266 3.22802C33.4595 2.95114 33.1175 2.73942 32.707 2.58632C32.2966 2.43648 31.808 2.35831 31.238 2.35831H29.7852V8.61238H31.238V8.61564ZM38.6452 0.280133H41.0295V10.7101H38.6452V0.280133ZM48.7364 0.280133H46.0979L42.1696 10.7101H44.6647L45.4692 8.31922H49.1793L49.9839 10.7101H52.5898L48.7364 0.280133ZM47.3292 2.54723L48.6093 6.4886H46.0197L47.3292 2.54723ZM54.0393 0.280133H56.2966L59.0458 5.17264L61.7299 0.280133H64.0035L64.4921 10.7101H62.1077L61.808 3.89251L59.6289 7.95766H58.3976L56.0914 3.93811L55.8243 10.7068H53.5507L54.0393 0.280133ZM78.5637 0.280133H80.8373L85.4008 7.04886V0.280133H87.7526V10.7101H85.5898L80.9155 3.81434V10.7101H78.5637V0.280133ZM93.7885 0.280133H89.808V10.7101H93.7722C94.5833 10.7101 95.3325 10.6059 96.023 10.3909C96.7136 10.1759 97.3064 9.85342 97.808 9.4202C98.3064 8.99023 98.7005 8.45277 98.9839 7.81108C99.2673 7.16938 99.4106 6.41694 99.4106 5.55049C99.4106 4.6417 99.2738 3.85668 98.9937 3.18893C98.7136 2.52118 98.3227 1.97394 97.8243 1.54723C97.3227 1.12052 96.7298 0.801306 96.0393 0.592837C95.3487 0.384368 94.5995 0.280133 93.7885 0.280133ZM96.0784 7.79479C95.5083 8.34202 94.6973 8.61564 93.6451 8.61564V8.61238H92.1924V2.35831H93.6451C94.2152 2.35831 94.7038 2.43648 95.1142 2.58632C95.5246 2.73942 95.8667 2.95114 96.1338 3.22802C96.4009 3.50489 96.5995 3.83714 96.7331 4.22802C96.8667 4.6189 96.9318 5.05538 96.9318 5.5342C96.9318 6.49512 96.6484 7.24756 96.0784 7.79479ZM28.1533 20.6938C28.2869 20.8371 28.4432 20.9837 28.6256 21.1303C28.8048 21.2801 29.0067 21.4137 29.2282 21.5374C29.4497 21.6612 29.6908 21.7589 29.9546 21.8371C30.2185 21.9153 30.4986 21.9511 30.7983 21.9511C30.9742 21.9511 31.1501 21.9251 31.3227 21.8762C31.4986 21.8241 31.6582 21.7524 31.8015 21.6547C31.9449 21.557 32.0621 21.4397 32.1501 21.3029C32.238 21.1661 32.2804 21.0098 32.2804 20.8371C32.2804 20.4593 32.0947 20.1661 31.7234 19.9576C31.352 19.7492 30.7657 19.5407 29.9611 19.3387C29.5703 19.2475 29.2054 19.114 28.8699 18.9414C28.5344 18.7687 28.2445 18.5602 28.0035 18.3127C27.7624 18.0684 27.5735 17.7883 27.44 17.4723C27.3064 17.1563 27.238 16.8045 27.238 16.4169C27.238 15.987 27.3162 15.5863 27.4693 15.2085C27.6224 14.8306 27.8569 14.4951 28.1729 14.2052C28.4856 13.9153 28.8797 13.684 29.3488 13.5179C29.8178 13.3485 30.3716 13.2638 31.01 13.2638C31.5344 13.2638 32.0002 13.3159 32.4009 13.4234C32.8015 13.5309 33.1468 13.658 33.4302 13.8045C33.7136 13.9544 33.9449 14.1042 34.1273 14.2638C34.3064 14.4234 34.4432 14.5472 34.5377 14.6384L33.1924 16.1075C33.0784 16.0163 32.9481 15.9153 32.7983 15.8078C32.6484 15.7003 32.4823 15.6026 32.2966 15.5081C32.111 15.4169 31.909 15.3387 31.6843 15.2769C31.4628 15.215 31.2282 15.1857 30.9807 15.1857C30.8146 15.1857 30.655 15.2117 30.4921 15.2606C30.3325 15.3127 30.1892 15.3811 30.0589 15.4658C29.9286 15.5537 29.8276 15.6547 29.7494 15.772C29.6712 15.8892 29.6322 16.013 29.6322 16.1466C29.6322 16.4951 29.8178 16.7752 30.1892 16.987C30.5605 17.1987 31.0719 17.3811 31.7201 17.5212C32.1012 17.6124 32.4758 17.7394 32.8406 17.8958C33.2054 18.0554 33.5344 18.2606 33.8211 18.5146C34.111 18.7687 34.3423 19.0847 34.5181 19.456C34.694 19.8273 34.782 20.2801 34.782 20.8111C34.782 21.2703 34.6778 21.6938 34.4725 22.0814C34.2673 22.469 33.9839 22.8078 33.6289 23.0912C33.2738 23.3778 32.8569 23.5993 32.3748 23.7557C31.896 23.9153 31.3781 23.9935 30.8211 23.9935C30.3064 23.9935 29.8374 23.9446 29.4139 23.8469C28.9905 23.7492 28.6094 23.6221 28.2706 23.4658C27.9318 23.3062 27.6224 23.127 27.352 22.9218C27.0784 22.7166 26.8439 22.5081 26.6484 22.2931L28.1533 20.6938ZM35.8439 15.3909H39.2543V23.7394H41.6549V15.3909H45.0491V13.3127H35.8439V15.3909ZM47.7201 13.3094H50.3585L54.2119 23.7394H51.6061L50.8015 21.3485H47.0914L46.2868 23.7394H43.7917L47.7201 13.3094ZM50.2315 19.5179L48.9513 15.5765L47.6419 19.5179H50.2315ZM57.6191 13.3094H55.3455V23.7394H57.6973V16.8436L62.3716 23.7394H64.5344V13.3094H62.1826V20.0782L57.6191 13.3094ZM66.593 13.3094H70.5702C71.3813 13.3094 72.1305 13.4137 72.821 13.6221C73.5116 13.8306 74.1044 14.1498 74.6061 14.5765C75.1044 15.0033 75.4953 15.5505 75.7754 16.2182C76.0556 16.886 76.1956 17.671 76.1956 18.5798C76.1956 19.4463 76.0523 20.1987 75.7689 20.8404C75.4855 21.4821 75.0914 22.0195 74.593 22.4495C74.0914 22.8827 73.4986 23.2052 72.808 23.4202C72.1175 23.6352 71.3683 23.7394 70.5572 23.7394H66.593V13.3094ZM70.4269 21.6449C71.479 21.6449 72.2901 21.3713 72.8601 20.8241C73.4302 20.2769 73.7136 19.5244 73.7136 18.5635C73.7136 18.0847 73.6484 17.6482 73.5149 17.2573C73.3813 16.8664 73.1826 16.5342 72.9155 16.2573C72.6484 15.9805 72.3064 15.7687 71.896 15.6156C71.4855 15.4625 70.9969 15.3876 70.4269 15.3876H68.9741V21.6417H70.4269V21.6449ZM83.0132 13.3094H80.3748L76.4464 23.7394H78.9416L79.7461 21.3485H83.4562L84.2608 23.7394H86.8666L83.0132 13.3094ZM81.6061 15.5765L82.8862 19.5179H80.2966L81.6061 15.5765ZM88.0035 13.3094H91.9188C92.5279 13.3094 93.0654 13.3941 93.5312 13.5668C93.9938 13.7394 94.3814 13.9739 94.6908 14.2704C95.0003 14.5668 95.2315 14.9153 95.3846 15.3094C95.5377 15.7068 95.6126 16.127 95.6126 16.5765C95.6126 17.2541 95.4628 17.8469 95.1631 18.3518C94.8634 18.8567 94.44 19.2606 93.8928 19.5635L96.2283 23.7394H93.6061L91.6485 19.9088H90.3227V23.7394H88.0003V13.3094H88.0035ZM91.7951 18.0163C92.238 18.0163 92.5833 17.886 92.8374 17.6254C93.0915 17.3648 93.2152 17.0358 93.2152 16.6417C93.2152 16.215 93.0882 15.8762 92.8374 15.6254C92.5833 15.3746 92.238 15.2508 91.7951 15.2508H90.326V18.0195H91.7951V18.0163ZM101.57 13.3094H97.5898V23.7394H101.554C102.365 23.7394 103.114 23.6352 103.805 23.4202C104.495 23.2052 105.088 22.8827 105.59 22.4495C106.088 22.0195 106.482 21.4821 106.766 20.8404C107.049 20.1987 107.192 19.4463 107.192 18.5798C107.192 17.671 107.056 16.886 106.775 16.2182C106.495 15.5505 106.104 15.0033 105.606 14.5765C105.104 14.1498 104.512 13.8306 103.821 13.6221C103.131 13.4137 102.381 13.3094 101.57 13.3094ZM103.86 20.8241C103.29 21.3713 102.479 21.6449 101.427 21.6449V21.6417H99.9742V15.3876H101.427C101.997 15.3876 102.486 15.4625 102.896 15.6156C103.306 15.7687 103.648 15.9805 103.916 16.2573C104.183 16.5342 104.381 16.8664 104.515 17.2573C104.648 17.6482 104.714 18.0847 104.714 18.5635C104.714 19.5244 104.43 20.2769 103.86 20.8241Z" fill="white"/>
<path d="M11.7264 19.2411L4.4658 11.9772L11.7264 4.71662L18.987 11.9772L11.7264 19.2411ZM7.81108 11.9772L11.7264 15.8925L15.6417 11.9772L11.7264 8.06516L7.81108 11.9772ZM11.7264 19.2411L4.4658 11.9772L11.7264 4.71662L18.987 11.9772L11.7264 19.2411ZM7.81108 11.9772L11.7264 15.8925L15.6417 11.9772L11.7264 8.06516L7.81108 11.9772ZM23.4528 11.9772C23.4528 18.4528 18.202 23.7036 11.7264 23.7036C5.25081 23.7036 0 18.4528 0 11.9772C0 5.50164 5.25081 0.250824 11.7264 0.250824C18.202 0.250824 23.4528 5.50164 23.4528 11.9772ZM11.7264 2.79806C6.65472 2.79806 2.54723 6.9088 2.54723 11.9772C2.54723 17.0456 6.65472 21.1596 11.7264 21.1596C16.798 21.1596 20.9055 17.0489 20.9055 11.9805C20.9055 6.91206 16.798 2.79806 11.7264 2.79806Z" fill="white"/>
<path d="M101.629 3.58304C101.395 3.58304 101.181 3.54372 100.98 3.46507C100.779 3.38642 100.61 3.27501 100.461 3.13082C100.311 2.98663 100.201 2.81623 100.123 2.61961C100.045 2.42299 100 2.20015 100 1.95766C100 1.71516 100.039 1.49232 100.123 1.28915C100.201 1.09253 100.318 0.922126 100.461 0.777939C100.603 0.633751 100.779 0.522334 100.98 0.443686C101.181 0.365038 101.395 0.325714 101.629 0.325714C101.862 0.325714 102.076 0.365038 102.278 0.443686C102.479 0.522334 102.647 0.633751 102.797 0.777939C102.946 0.922126 103.056 1.09253 103.134 1.28915C103.212 1.48577 103.257 1.7086 103.257 1.95766C103.257 2.20015 103.218 2.41643 103.134 2.61961C103.056 2.81623 102.939 2.98663 102.797 3.13082C102.654 3.27501 102.479 3.37987 102.278 3.46507C102.076 3.54372 101.856 3.58304 101.629 3.58304ZM101.629 3.15703C101.797 3.15703 101.953 3.13082 102.096 3.07183C102.239 3.01285 102.362 2.9342 102.466 2.82934C102.57 2.72447 102.654 2.59995 102.706 2.4492C102.764 2.30502 102.79 2.14117 102.79 1.96421C102.79 1.78725 102.764 1.6234 102.706 1.47921C102.647 1.33503 102.57 1.20395 102.466 1.09908C102.362 0.99422 102.239 0.909019 102.096 0.856587C101.953 0.797601 101.797 0.771385 101.629 0.771385C101.46 0.771385 101.304 0.797601 101.161 0.856587C101.019 0.915573 100.895 0.99422 100.792 1.09908C100.688 1.20395 100.603 1.32847 100.552 1.47921C100.5 1.62996 100.467 1.78725 100.467 1.96421C100.467 2.14117 100.493 2.30502 100.552 2.4492C100.61 2.59339 100.688 2.72447 100.792 2.82934C100.895 2.9342 101.019 3.0194 101.161 3.07183C101.298 3.13082 101.453 3.15703 101.629 3.15703ZM101.064 1.11219H101.713C101.869 1.11219 101.999 1.15807 102.096 1.24327C102.193 1.32847 102.245 1.453 102.245 1.59719C102.245 1.71516 102.219 1.82002 102.161 1.89867C102.109 1.97732 102.037 2.0363 101.953 2.07563L102.336 2.6917H101.921L101.57 2.13461H101.421V2.6917H101.058V1.11219H101.064ZM101.603 1.83968C101.7 1.83968 101.765 1.82658 101.81 1.79381C101.856 1.76104 101.875 1.7086 101.875 1.6234C101.875 1.55786 101.856 1.50543 101.817 1.46611C101.778 1.42678 101.726 1.40712 101.668 1.40712H101.428V1.83968H101.603Z" fill="white"/>
</g>
<defs>
<clipPath id="clip0_14005_1083">
<rect width="107.189" height="24" fill="white"/>
</clipPath>
</defs>
</svg>
